<?xml version="1.0" encoding="UTF-8"?>
<svg width="120px" height="120px" viewBox="0 0 120 120" version="1.1" xmlns="http://www.w3.org/2000/svg" xmlns:xlink="http://www.w3.org/1999/xlink">
    <!-- Generator: Sketch 51.1 (57501) - http://www.bohemiancoding.com/sketch -->
    <title>flow_b</title>
    <desc>Created with Sketch.</desc>
    <defs></defs>
    <g id="参考" stroke="none" stroke-width="1" fill="none" fill-rule="evenodd">
        <g id="创玉印业" transform="translate(-430.000000, -4696.000000)" fill="#FFFFFF">
            <path d="M490,4816 C456.862915,4816 430,4789.13708 430,4756 C430,4722.86292 456.862915,4696 490,4696 C523.137085,4696 550,4722.86292 550,4756 C550,4789.13708 523.137085,4816 490,4816 Z M514.937463,4727.06431 L464.99222,4727.06431 C462.235732,4727.06431 460,4729.29732 460,4732.05644 L460,4736.04882 C460,4738.80188 462.235732,4741.03488 464.99222,4741.03488 L467.98878,4741.03488 L467.98878,4735.04906 L463.997244,4735.04906 L463.997244,4733.05583 L515.938439,4733.05583 L515.938439,4735.04906 L511.941195,4735.04906 L511.941195,4741.03488 L514.937463,4741.03488 C517.693951,4741.03488 519.929683,4738.80188 519.929683,4736.04882 L519.929683,4732.05644 C519.929683,4729.29732 517.693951,4727.06431 514.937463,4727.06431 Z M469.990366,4735.04906 L469.990366,4786.92699 L471.986024,4786.92699 L471.986024,4784.92784 L475.983268,4784.92784 L475.983268,4786.921 L479.980439,4786.921 L479.980439,4784.92784 L483.977683,4784.92784 L483.977683,4786.921 L487.96922,4786.921 L487.96922,4784.92784 L491.966463,4784.92784 L491.966463,4786.921 L495.963707,4786.921 L495.963707,4784.92784 L499.960951,4784.92784 L499.960951,4786.921 L503.946488,4786.921 L503.946488,4784.92784 L507.943659,4784.92784 L507.943659,4786.921 L509.93961,4786.921 L509.93961,4735.04906 L469.990366,4735.04906 Z M479.974732,4772.95642 L479.974732,4745.02127 L483.971976,4745.02127 L483.971976,4772.95642 L479.974732,4772.95642 Z M495.958,4778.94224 L495.958,4743.02811 L499.955244,4743.02811 L499.955244,4778.94224 L495.958,4778.94224 Z" id="flow_b"></path>
        </g>
    </g>
</svg>