<?xml version="1.0" encoding="UTF-8"?>
<svg width="120px" height="120px" viewBox="0 0 120 120" version="1.1" xmlns="http://www.w3.org/2000/svg" xmlns:xlink="http://www.w3.org/1999/xlink">
    <!-- Generator: Sketch 51.1 (57501) - http://www.bohemiancoding.com/sketch -->
    <title>flow_c</title>
    <desc>Created with Sketch.</desc>
    <defs></defs>
    <g id="参考" stroke="none" stroke-width="1" fill="none" fill-rule="evenodd">
        <g id="创玉印业" transform="translate(-660.000000, -4696.000000)" fill="#FFFFFF">
            <path d="M720,4816 C686.862915,4816 660,4789.13708 660,4756 C660,4722.86292 686.862915,4696 720,4696 C753.137085,4696 780,4722.86292 780,4756 C780,4789.13708 753.137085,4816 720,4816 Z M689.007556,4740.60761 L689.007556,4771.14414 C689.007556,4771.14414 689.465097,4774.46747 690.511444,4775.51325 C691.557306,4776.55873 693.50275,4777.65118 693.50275,4777.65118 L714.985556,4783.51507 C714.985556,4783.51507 716.9,4784.08056 717.411597,4783.84071 C717.91525,4783.60057 717.768097,4782.8724 717.768097,4782.8724 L717.768097,4748.4547 L689.007556,4740.60761 Z M750.922403,4740.60761 L741.800653,4743.09423 L741.800653,4756.35592 L735.786847,4757.98268 L735.786847,4744.7362 L722.053653,4748.48569 L722.053653,4780.06818 C722.053653,4780.06818 721.9685,4783.22874 722.3715,4783.79423 C722.774597,4784.36728 724.774097,4783.56165 724.774097,4783.56165 L744.079153,4778.29414 C744.079153,4778.29414 748.155847,4777.22522 749.651306,4775.73005 C751.14725,4774.23479 750.930347,4767.937 750.930347,4767.937 L750.930347,4740.60761 L750.922403,4740.60761 Z M750.82175,4737.42352 L721.612097,4729.34423 C721.612097,4729.34423 720.348944,4729.04202 719.914847,4729.04202 C719.480847,4729.04202 718.171097,4729.36728 718.171097,4729.36728 L709.157556,4731.8539 L740.29725,4740.26677 L750.82175,4737.42352 Z M689,4737.42352 L719.899347,4745.77442 L732.059,4742.48972 L701.020056,4734.10028 L689,4737.42352 Z" id="flow_c"></path>
        </g>
    </g>
</svg>