<?xml version="1.0" encoding="UTF-8"?>
<svg width="120px" height="120px" viewBox="0 0 120 120" version="1.1" xmlns="http://www.w3.org/2000/svg" xmlns:xlink="http://www.w3.org/1999/xlink">
    <!-- Generator: Sketch 51.1 (57501) - http://www.bohemiancoding.com/sketch -->
    <title>flow_d</title>
    <desc>Created with Sketch.</desc>
    <defs></defs>
    <g id="参考" stroke="none" stroke-width="1" fill="none" fill-rule="evenodd">
        <g id="创玉印业" transform="translate(-890.000000, -4696.000000)" fill="#FFFFFF">
            <path d="M950,4816 C916.862915,4816 890,4789.13708 890,4756 C890,4722.86292 916.862915,4696 950,4696 C983.137085,4696 1010,4722.86292 1010,4756 C1010,4789.13708 983.137085,4816 950,4816 Z M917.78998,4761.99381 L957.534776,4761.99381 C957.696023,4761.99381 957.826099,4761.86439 957.826099,4761.70719 L957.826099,4736.3325 C957.826099,4736.17166 957.696023,4736.04407 957.534776,4736.04407 L917.78998,4736.04407 C917.630656,4736.04407 917.50058,4736.17166 917.50058,4736.3325 L917.50058,4761.70719 C917.50058,4761.86209 917.630656,4761.99381 917.78998,4761.99381 Z M971.224773,4764.54807 C967.830006,4764.54807 965.071475,4767.29842 965.071475,4770.67709 C965.071475,4774.05902 967.830006,4776.80563 971.224773,4776.80563 C974.619924,4776.80563 977.382207,4774.05902 977.382207,4770.67709 C977.382207,4767.30072 974.617711,4764.54807 971.224773,4764.54807 Z M971.224773,4773.61003 C969.604983,4773.61003 968.285175,4772.29544 968.285175,4770.67891 C968.285175,4769.0643 969.604983,4767.74789 971.224773,4767.74789 C972.848315,4767.74789 974.168603,4769.0643 974.168603,4770.67891 C974.168603,4772.29544 972.848315,4773.61003 971.224773,4773.61003 Z M930.341621,4764.74234 C926.946469,4764.74234 924.186015,4767.48886 924.186015,4770.87127 C924.186015,4774.24955 926.946469,4776.9999 930.341621,4776.9999 C933.736388,4776.9999 936.494918,4774.24955 936.494918,4770.87127 C936.496746,4767.48886 933.736388,4764.74234 930.341621,4764.74234 Z M930.341621,4773.802 C928.71577,4773.802 927.395577,4772.48559 927.395577,4770.87127 C927.395577,4769.25665 928.71577,4767.94015 930.341621,4767.94015 C931.962854,4767.94015 933.283143,4769.25665 933.283143,4770.87127 C933.283143,4772.48559 931.965163,4773.802 930.341621,4773.802 Z M926.688242,4764.11441 C926.798787,4764.04592 926.851703,4763.91238 926.816394,4763.79072 C926.778872,4763.66532 926.666883,4763.57892 926.536808,4763.57892 L917.287475,4763.57892 C917.128152,4763.57892 917,4763.70843 917,4763.86745 L917,4767.65171 C917,4767.81073 917.128152,4767.94015 917.287475,4767.94015 L923.342735,4767.94015 C923.460688,4767.94015 923.567481,4767.86945 923.612507,4767.75757 C924.207469,4766.25666 925.299259,4764.96008 926.688242,4764.11441 Z M982.664805,4763.5771 L975.15591,4763.5771 C975.025834,4763.5771 974.909324,4763.66312 974.874015,4763.7888 C974.838321,4763.91046 974.893545,4764.04371 974.999953,4764.11249 C977.258192,4765.49184 978.605901,4767.87922 978.605901,4770.49633 C978.605901,4770.77097 978.585985,4771.06544 978.548752,4771.40072 C978.536726,4771.48119 978.564531,4771.56357 978.617542,4771.62641 C978.670939,4771.68743 978.751755,4771.72259 978.832571,4771.72259 L982.661052,4771.72259 C982.818452,4771.72259 982.948528,4771.59499 982.948528,4771.43406 L982.948528,4763.86745 C982.954493,4763.70843 982.822589,4763.5771 982.664805,4763.5771 Z M967.294117,4764.3674 C967.471143,4764.26931 967.585344,4764.08107 967.585344,4763.86745 C967.585344,4763.5475 967.323461,4763.29039 967.004332,4763.29039 L934.688,4763.29039 C934.427945,4763.29039 934.201274,4763.46291 934.132484,4763.71025 C934.063309,4763.95951 934.167793,4764.22438 934.386574,4764.35763 C936.558032,4765.68793 937.854653,4767.98134 937.854653,4770.49824 C937.854653,4770.76129 937.836566,4771.04379 937.797504,4771.36557 C937.775665,4771.53206 937.828676,4771.69529 937.937297,4771.81685 C938.049671,4771.94033 938.207166,4772.01294 938.37284,4772.01294 L963.325458,4772.01294 C963.491227,4772.01294 963.648627,4771.94225 963.761,4771.81685 C963.869236,4771.69299 963.918496,4771.53024 963.898965,4771.36557 C963.859519,4771.04379 963.845569,4770.75938 963.845569,4770.49824 C963.841816,4767.98738 965.132376,4765.69578 967.294117,4764.3674 Z M973.325227,4740.58376 L962.681332,4740.58376 C960.746166,4740.58376 959.49919,4741.54697 959.49919,4743.03629 L959.49919,4761.70528 C959.49919,4761.86439 959.625128,4761.99381 959.786761,4761.99381 L982.664805,4761.99381 C982.822589,4761.99381 982.952665,4761.86439 982.952665,4761.70528 L982.952665,4756.22785 C982.954493,4753.17105 977.693446,4740.58376 973.325227,4740.58376 Z M964.196638,4755.43304 L964.196638,4745.05094 L972.212079,4745.05094 C974.574513,4745.05094 977.796006,4751.53095 977.949749,4755.43304 L964.196638,4755.43304 Z" id="flow_d"></path>
        </g>
    </g>
</svg>