<?xml version="1.0" encoding="UTF-8"?>
<svg width="120px" height="120px" viewBox="0 0 120 120" version="1.1" xmlns="http://www.w3.org/2000/svg" xmlns:xlink="http://www.w3.org/1999/xlink">
    <!-- Generator: Sketch 51.1 (57501) - http://www.bohemiancoding.com/sketch -->
    <title>flow_a</title>
    <desc>Created with Sketch.</desc>
    <defs></defs>
    <g id="参考" stroke="none" stroke-width="1" fill="none" fill-rule="evenodd">
        <g id="创玉印业" transform="translate(-200.000000, -4696.000000)" fill="#FFFFFF">
            <path d="M260,4816 C226.862915,4816 200,4789.13708 200,4756 C200,4722.86292 226.862915,4696 260,4696 C293.137085,4696 320,4722.86292 320,4756 C320,4789.13708 293.137085,4816 260,4816 Z M278.664081,4726 L230,4774.66408 L241.335998,4786 L290,4737.336 L278.664081,4726 Z M237.700558,4777.30218 L233.282295,4772.88392 L234.254313,4771.91221 L238.672575,4776.33048 L237.700558,4777.30218 Z M242.030297,4772.97236 L237.612035,4768.5541 L238.584131,4767.58208 L243.002393,4772.00034 L242.030297,4772.97236 Z M246.347491,4768.65524 L241.929229,4764.23698 L242.901325,4763.26489 L247.319588,4767.68315 L246.347491,4768.65524 Z M250.677309,4764.32543 L246.259047,4759.90716 L247.231065,4758.93507 L251.649327,4763.35333 L250.677309,4764.32543 Z M254.994819,4760.00792 L250.576557,4755.58965 L251.548575,4754.61764 L255.966837,4759.0359 L254.994819,4760.00792 Z M259.324637,4755.6781 L254.906375,4751.25984 L255.878393,4750.28782 L260.296655,4754.70608 L259.324637,4755.6781 Z M263.654455,4751.3609 L259.236193,4746.94264 L260.208211,4745.97062 L264.626473,4750.38889 L263.654455,4751.3609 Z M267.971886,4747.03085 L263.553624,4742.61259 L264.525721,4741.64049 L268.943983,4746.05875 L267.971886,4747.03085 Z M272.301704,4742.70103 L267.883442,4738.28277 L268.85546,4737.31067 L273.273722,4741.72893 L272.301704,4742.70103 Z M276.618899,4738.38384 L272.200636,4733.96557 L273.172654,4732.99356 L277.590916,4737.41182 L276.618899,4738.38384 Z M276.53077,4729.63544 L277.502472,4728.66374 L281.920734,4733.082 L280.949032,4734.0537 L276.53077,4729.63544 Z M281.037161,4765.95356 L272.554097,4757.47057 L261.508442,4768.51623 L269.991505,4776.99921 L284.357327,4780.31938 L281.037161,4765.95356 Z M241.182148,4726.1088 L230.140517,4737.15043 L247.367952,4754.37787 L258.409583,4743.33616 L241.182148,4726.1088 Z" id="flow_a"></path>
        </g>
    </g>
</svg>