<?xml version="1.0" encoding="UTF-8"?>
<svg width="120px" height="120px" viewBox="0 0 120 120" version="1.1" xmlns="http://www.w3.org/2000/svg" xmlns:xlink="http://www.w3.org/1999/xlink">
    <!-- Generator: Sketch 51.1 (57501) - http://www.bohemiancoding.com/sketch -->
    <title>flow_e</title>
    <desc>Created with Sketch.</desc>
    <defs></defs>
    <g id="参考" stroke="none" stroke-width="1" fill="none" fill-rule="evenodd">
        <g id="创玉印业" transform="translate(-1120.000000, -4696.000000)" fill="#FFFFFF">
            <path d="M1180,4816 C1146.86292,4816 1120,4789.13708 1120,4756 C1120,4722.86292 1146.86292,4696 1180,4696 C1213.13708,4696 1240,4722.86292 1240,4756 C1240,4789.13708 1213.13708,4816 1180,4816 Z M1182.00717,4748.37084 C1182.00717,4747.7984 1182.07895,4747.24364 1182.20432,4746.71112 C1181.27176,4746.25551 1180.47627,4745.54805 1179.91511,4744.67322 C1178.90597,4746.23732 1177.17632,4747.27528 1175.20893,4747.27528 C1173.23874,4747.27528 1171.50599,4746.23732 1170.50035,4744.67322 C1169.49321,4746.23732 1167.75846,4747.27528 1165.79136,4747.27528 C1164.35504,4747.27528 1163.04487,4746.71739 1162.05053,4745.80779 L1162.05053,4753.11308 C1162.05053,4753.11308 1161.17506,4760.84266 1166.71223,4765.00417 L1162.63478,4787 L1196.09533,4787 L1192.01278,4765.00417 C1195.58056,4762.32156 1196.48733,4758.16288 1196.67948,4755.54101 L1189.03855,4755.54101 C1185.15946,4755.54101 1182.00717,4752.32507 1182.00717,4748.37084 Z M1190.25074,4741.19703 L1196.81734,4741.19703 C1197.15905,4741.19703 1197.49107,4741.2318 1197.81988,4741.2796 L1197.81988,4728.85862 C1197.81988,4726.73349 1196.12102,4725 1194.03376,4725 C1191.9475,4725 1190.25074,4726.73349 1190.25074,4728.85862 L1190.25074,4741.19703 Z M1182.86165,4744.94438 C1183.95977,4742.89343 1186.01153,4741.44899 1188.40392,4741.23018 L1188.40392,4728.85862 C1188.40392,4726.73349 1186.70665,4725 1184.61899,4725 C1182.53313,4725 1180.83717,4726.73349 1180.83717,4728.85862 L1180.83717,4741.52944 C1180.83747,4743.01148 1181.66076,4744.29614 1182.86165,4744.94438 Z M1178.99075,4741.52944 L1178.99075,4728.86064 C1178.99075,4726.73349 1177.29389,4725.00152 1175.20893,4725.00152 C1173.11997,4725.00152 1171.42281,4726.73349 1171.42281,4728.86064 L1171.42281,4741.52944 C1171.42281,4743.65982 1173.11997,4745.39018 1175.20893,4745.39018 C1177.29349,4745.39018 1178.99075,4743.65982 1178.99075,4741.52944 Z M1169.57598,4741.52944 L1169.57598,4732.97597 C1169.57598,4730.84923 1167.87912,4729.11523 1165.79136,4729.11523 C1163.7056,4729.11523 1162.00844,4730.84923 1162.00844,4732.97597 L1162.00844,4741.52944 C1162.00844,4743.65982 1163.7056,4745.39018 1165.79136,4745.39018 C1167.87912,4745.39018 1169.57598,4743.65982 1169.57598,4741.52944 Z M1196.81774,4743.08061 L1189.03855,4743.08061 C1186.17949,4743.08061 1183.85239,4745.45446 1183.85239,4748.37084 C1183.85239,4751.2856 1186.17949,4753.65743 1189.03855,4753.65743 L1196.81774,4753.65743 C1199.6733,4753.65743 1202,4751.2856 1202,4748.37084 C1202,4745.45406 1199.6733,4743.08061 1196.81774,4743.08061 Z" id="flow_e"></path>
        </g>
    </g>
</svg>